<?xml version="1.0" standalone="no"?>
<!DOCTYPE svg PUBLIC "-//W3C//DTD SVG 20010904//EN"
 "http://www.w3.org/TR/2001/REC-SVG-20010904/DTD/svg10.dtd">
<svg version="1.0" xmlns="http://www.w3.org/2000/svg"
 width="500.000000pt" height="500.000000pt" viewBox="0 0 500.000000 500.000000"
 preserveAspectRatio="xMidYMid meet">

<g transform="translate(0.000000,500.000000) scale(0.100000,-0.100000)"
fill="#000000" stroke="none">
<path d="M2268 3863 c7 -3 16 -2 19 1 4 3 -2 6 -13 5 -11 0 -14 -3 -6 -6z"/>
<path d="M2342 3839 c35 -16 53 -32 68 -60 20 -39 28 -105 11 -95 -4 3 -17 -1
-27 -10 -19 -15 -19 -15 1 -10 11 3 37 8 57 11 36 7 37 7 18 27 -31 34 -45 75
-30 93 16 19 17 18 -53 44 -74 27 -107 27 -45 0z"/>
<path d="M2001 3837 c2 -2 25 -22 50 -45 l45 -41 67 20 c68 20 90 34 40 25
-16 -2 -42 -10 -58 -17 -29 -11 -35 -9 -82 25 -28 20 -54 36 -58 36 -5 0 -6
-1 -4 -3z"/>
<path d="M2700 3759 c0 -5 -5 -7 -12 -3 -6 4 2 -13 19 -37 38 -55 56 -109 48
-142 -5 -20 -2 -28 15 -37 18 -10 26 -8 44 9 12 12 27 21 34 21 6 0 9 7 5 16
-4 11 -13 14 -29 10 -20 -5 -24 -2 -24 15 0 12 -19 52 -42 90 -41 65 -58 82
-58 58z"/>
<path d="M3594 3715 c-8 -13 -13 -28 -10 -33 9 -15 79 -46 96 -44 66 11 81 28
32 38 -15 3 -43 19 -61 35 -19 16 -35 29 -37 29 -2 0 -11 -11 -20 -25z"/>
<path d="M1813 3695 c0 -11 4 -12 14 -4 7 6 13 13 13 15 0 2 -6 4 -13 4 -8 0
-14 -7 -14 -15z"/>
<path d="M2001 3691 c-21 -16 -21 -19 -6 -24 27 -11 32 -8 37 18 6 30 1 31
-31 6z"/>
<path d="M2092 3642 c60 -25 102 -55 130 -94 12 -17 17 -28 10 -24 -14 9 -14
4 -2 -48 5 -22 6 -44 3 -49 -2 -4 -26 14 -51 40 -61 63 -104 82 -199 90 -65 5
-81 3 -92 -11 -18 -22 -48 -20 -63 4 -7 11 -20 20 -29 20 -24 0 -33 -31 -14
-49 13 -13 40 -16 138 -16 97 0 129 -4 154 -17 17 -10 35 -23 39 -29 5 -8 3
-9 -7 -4 -8 5 -1 -4 14 -20 19 -19 27 -37 25 -54 -3 -26 -4 -26 -100 -27 -108
-2 -97 3 -217 -91 -68 -53 -89 -83 -52 -75 9 2 12 -2 7 -13 -7 -19 -9 -20 91
47 123 83 168 102 247 107 67 3 70 3 56 -14 -14 -17 -13 -17 13 0 25 16 52 19
217 19 103 1 187 -1 185 -4 -2 -3 13 -6 34 -7 59 -2 153 -43 188 -81 18 -19
30 -38 28 -42 -9 -15 25 -81 38 -73 7 4 28 18 47 31 30 20 44 23 96 20 68 -4
122 -36 153 -89 18 -33 26 -36 35 -13 9 24 -3 38 -79 97 -87 66 -96 95 -40
128 l37 22 -33 14 c-19 8 -46 30 -62 49 -16 19 -43 42 -60 50 -18 9 -48 31
-67 50 -19 18 -39 34 -45 35 -5 1 -16 4 -23 7 -27 10 -26 -11 2 -32 134 -97
176 -150 176 -223 l0 -43 -63 0 c-52 0 -67 4 -83 21 -37 41 -142 92 -254 124
-146 42 -228 69 -254 82 -35 18 -45 7 -47 -47 0 -33 -1 -33 -19 20 -10 30 -19
62 -19 71 -1 9 -10 28 -22 43 -19 24 -20 28 -5 58 9 17 15 33 13 35 -6 5 -68
13 -147 19 l-75 5 47 -19z"/>
<path d="M3090 3645 c0 -9 10 -19 23 -24 28 -11 31 -8 15 18 -15 24 -38 28
-38 6z"/>
<path d="M1731 3633 c-13 -8 -38 -32 -57 -52 -32 -34 -32 -37 -15 -49 15 -10
17 -20 11 -53 -9 -51 -15 -55 -48 -43 -26 10 -33 6 -85 -41 -36 -33 -57 -60
-57 -74 0 -19 2 -20 23 -10 12 7 38 25 57 40 23 19 59 33 105 43 39 8 79 18
90 23 17 7 15 8 -14 13 -28 4 -36 11 -46 40 -11 30 -10 40 8 75 11 22 29 53
39 68 24 34 20 42 -11 20z"/>
<path d="M1476 3569 c-29 -34 -34 -66 -12 -66 14 0 26 23 41 75 9 30 2 28 -29
-9z"/>
<path d="M1544 3565 c-4 -8 -3 -27 0 -41 10 -37 34 -14 28 26 -5 32 -19 40
-28 15z"/>
<path d="M2497 3546 c-4 -10 18 -19 81 -34 48 -12 117 -38 154 -57 83 -43 101
-44 62 -4 -64 68 -281 137 -297 95z"/>
<path d="M1465 3430 c-3 -5 -19 -10 -35 -10 -15 0 -30 -7 -34 -15 -3 -9 0 -15
9 -15 25 0 62 18 68 34 7 18 2 22 -8 6z"/>
<path d="M1780 3379 c-36 -22 -90 -46 -120 -55 -80 -22 -95 -29 -187 -91 -88
-58 -123 -94 -123 -124 0 -11 -16 -29 -37 -43 -33 -20 -39 -21 -47 -8 -12 20
1 145 19 188 13 32 13 37 -1 51 -13 14 -14 13 -8 -13 4 -16 3 -26 -1 -22 -5 5
-17 -11 -28 -35 -27 -57 -36 -232 -14 -262 15 -19 16 -19 36 -1 12 11 21 24
21 30 0 25 81 110 148 156 91 61 155 83 231 78 55 -3 61 -1 121 42 107 77 106
76 92 93 -10 11 -9 17 3 27 8 7 15 16 15 21 0 20 -59 4 -120 -32z"/>
<path d="M1393 3348 c-29 -32 -75 -126 -71 -146 5 -24 54 31 84 93 35 74 29
99 -13 53z"/>
<path d="M1300 3330 c-13 -8 -13 -10 2 -10 9 0 20 5 23 10 8 13 -5 13 -25 0z"/>
<path d="M2458 3213 c-26 -7 -22 -23 5 -24 18 0 19 -2 5 -7 -24 -10 -11 -25
46 -53 61 -30 90 -68 89 -113 -1 -26 -15 -52 -59 -106 -50 -62 -123 -118 -146
-112 -4 1 -12 -7 -18 -18 -9 -18 -8 -20 15 -20 28 0 34 -25 15 -61 -14 -25
-26 -24 -55 6 -30 29 -31 40 -5 67 22 24 26 38 10 38 -5 0 -10 13 -10 30 0 24
-9 36 -42 60 -22 16 -45 30 -50 30 -5 0 -17 8 -28 18 -35 33 -111 52 -205 53
-77 1 -101 -3 -164 -27 -122 -48 -136 -89 -65 -197 l34 -52 -32 35 c-17 19
-38 35 -46 36 -7 2 -17 5 -20 8 -3 4 -14 -20 -24 -51 -15 -51 -16 -68 -6 -140
8 -64 8 -86 -1 -97 -10 -12 -9 -15 6 -14 10 1 59 -10 108 -24 50 -15 99 -28
110 -31 11 -3 -16 -6 -60 -7 -67 -1 -75 -3 -50 -11 17 -5 53 -12 80 -15 28 -3
129 -13 225 -24 163 -18 168 -19 65 -15 -60 3 -154 8 -209 11 l-98 7 12 -24
c12 -22 11 -22 -13 4 -16 17 -37 27 -54 27 -41 1 -124 50 -151 90 -21 31 -23
42 -16 90 4 30 6 75 5 98 -2 54 13 104 40 128 17 15 23 16 41 5 17 -11 17 -8
-5 21 -71 93 -34 147 128 189 119 31 195 33 350 9 77 -12 156 -24 175 -26 22
-4 42 0 55 9 17 13 18 18 6 40 -18 33 -76 56 -199 77 -29 5 -65 18 -80 28 -15
11 -41 20 -59 20 -17 0 -45 8 -63 17 -26 14 -36 14 -60 3 -21 -9 -26 -16 -19
-25 12 -13 3 -53 -11 -53 -5 0 -13 6 -17 13 -24 37 -44 34 -152 -21 -125 -64
-128 -66 -111 -87 9 -11 9 -15 1 -15 -26 0 -71 32 -110 77 -40 46 -42 47 -56
29 -22 -29 -18 -58 14 -107 30 -45 34 -66 14 -90 -5 -8 -13 -26 -16 -40 -4
-14 -19 -38 -34 -53 -24 -24 -27 -36 -33 -123 -6 -83 -9 -98 -29 -114 l-22
-18 33 -5 c18 -3 51 -7 72 -10 48 -6 79 -32 57 -46 -23 -14 3 -38 36 -32 17 3
24 1 19 -6 -7 -12 9 -42 62 -112 30 -41 29 -40 -17 10 -28 30 -53 63 -57 73
-3 10 -15 17 -30 17 -24 0 -24 -1 -10 -27 19 -38 121 -134 176 -166 34 -19 74
-30 153 -42 125 -17 198 -37 245 -65 29 -18 41 -43 19 -41 -4 1 -20 -5 -37
-14 -16 -8 -41 -15 -55 -15 -17 0 -24 -4 -19 -12 4 -6 3 -8 -3 -5 -6 4 -26 0
-44 -8 -29 -12 -32 -20 -7 -16 4 0 5 -6 1 -15 -4 -12 -8 -13 -13 -3 -5 7 -18
9 -35 5 -23 -6 -25 -9 -13 -23 12 -15 11 -15 -10 -2 -19 12 -24 12 -31 0 -5
-8 -20 -15 -34 -17 -52 -5 -812 -333 -799 -345 18 -14 521 -201 737 -274 129
-43 354 -125 364 -132 2 -2 2 -5 -1 -8 -3 -3 -77 20 -164 51 -88 31 -172 60
-189 64 -16 4 -79 27 -140 49 -373 141 -556 198 -523 166 8 -8 380 -148 528
-200 69 -23 235 -84 369 -134 134 -50 248 -91 253 -91 5 0 33 -11 61 -24 92
-42 141 -62 190 -76 26 -8 47 -18 47 -21 0 -4 30 7 68 25 37 18 101 48 142 66
98 43 288 130 418 191 57 27 107 49 110 49 4 0 99 43 212 96 113 54 256 121
318 150 61 29 112 55 112 58 0 7 -36 -7 -97 -37 -26 -13 -88 -41 -138 -62 -49
-21 -94 -41 -100 -45 -12 -9 -322 -150 -330 -150 -3 0 -101 -45 -218 -99 -357
-167 -469 -214 -479 -199 -14 23 -3 32 98 74 54 23 153 67 219 98 66 32 183
86 260 121 77 34 194 89 260 120 66 32 158 75 205 97 46 21 88 45 92 51 4 7 8
9 8 4 0 -4 14 0 31 8 17 9 28 19 25 22 -3 3 -12 0 -21 -7 -8 -7 -15 -9 -15 -4
0 5 -11 17 -24 26 -19 14 -30 15 -60 7 -27 -8 -41 -7 -52 1 -7 7 -21 10 -29 6
-8 -3 -15 -1 -15 4 0 5 -7 7 -15 4 -8 -4 -15 -1 -15 6 0 7 -7 10 -16 6 -9 -3
-21 -3 -27 1 -14 8 -38 12 -94 14 -34 0 -41 4 -36 16 5 13 1 15 -21 9 -16 -4
-25 -3 -22 3 7 11 -19 22 -38 15 -7 -3 -21 3 -31 12 -9 10 -40 23 -68 29 -32
8 -51 17 -49 25 2 8 -5 11 -23 8 -14 -3 -25 -1 -26 6 0 6 -4 2 -9 -9 -8 -19
-9 -19 -9 4 -1 17 -5 21 -16 17 -9 -3 -18 1 -21 9 -4 8 -12 15 -20 15 -8 0
-14 9 -14 20 0 11 -5 20 -11 20 -6 0 -9 -9 -6 -20 3 -11 1 -20 -4 -20 -5 0 -9
6 -9 13 0 8 -4 7 -10 -3 -8 -12 -10 -12 -10 5 0 11 -4 16 -8 10 -8 -12 -32
-13 -49 -2 -6 4 -18 4 -27 1 -8 -3 -29 1 -45 9 -28 14 -31 14 -45 -8 -15 -23
-14 -24 14 -30 16 -4 35 -3 41 1 8 5 9 3 4 -6 -6 -10 -4 -12 9 -7 9 4 15 3 12
-2 -3 -4 17 -23 44 -42 78 -53 90 -105 40 -163 -32 -36 -109 -86 -132 -86 -7
0 10 13 38 30 107 61 134 132 70 188 -46 40 -130 80 -217 102 -40 11 -75 18
-76 16 -2 -2 -10 -43 -18 -91 -7 -48 -16 -89 -18 -91 -12 -12 -16 108 -7 208
6 62 11 145 13 183 1 39 6 68 10 65 5 -3 18 20 30 50 19 46 29 59 67 78 56 28
109 28 258 0 102 -19 122 -20 181 -9 36 7 73 13 81 13 8 0 20 4 25 9 6 4 22
10 37 13 31 5 165 74 175 89 3 6 1 7 -5 3 -7 -4 -12 -5 -12 -2 0 3 14 13 32
22 18 9 53 37 78 63 l45 46 -50 -36 c-27 -20 -66 -41 -85 -47 l-35 -12 28 23
c15 12 42 35 60 50 l32 28 -40 -23 c-22 -13 -57 -39 -78 -59 -48 -45 -197 -98
-197 -70 0 9 21 17 103 37 37 9 97 68 138 135 27 43 34 49 39 34 6 -16 9 -14
23 15 21 40 21 40 2 40 -8 0 -15 -5 -15 -12 0 -9 -3 -9 -12 0 -7 7 -19 12 -28
12 -13 0 -17 11 -18 55 -1 32 -11 78 -26 112 -29 71 -54 160 -53 192 1 22 4
23 47 18 25 -3 56 -8 70 -12 23 -6 23 -4 -8 23 -27 24 -34 38 -34 66 0 20 -4
36 -9 36 -5 0 -9 -5 -9 -11 0 -7 -9 -27 -21 -45 -18 -30 -23 -32 -46 -23 -14
5 -42 26 -62 45 -20 20 -54 44 -76 55 -38 20 -37 18 23 -38 75 -70 96 -113 80
-169 -5 -21 -17 -48 -24 -59 -19 -27 -18 -35 9 -35 57 0 91 -62 85 -152 -2
-37 -10 -59 -25 -77 -41 -43 -22 -52 52 -26 50 18 50 18 36 1 -8 -9 -8 -15 -1
-18 5 -1 -8 -26 -30 -53 -46 -56 -119 -91 -153 -74 -20 11 -14 31 8 23 25 -10
80 15 116 52 l34 36 -30 -15 c-16 -8 -48 -20 -69 -26 -35 -9 -38 -9 -25 4 8 8
32 21 54 30 l40 15 -45 -6 c-25 -4 -63 -17 -86 -30 -53 -31 -78 -32 -72 -1 2
13 -2 29 -10 36 -12 11 -10 15 10 25 38 19 34 49 -10 84 -21 17 -49 33 -63 37
-13 3 -37 23 -54 43 -16 20 -54 60 -82 88 -29 28 -53 56 -53 62 0 6 19 26 41
45 41 34 46 57 11 57 -9 0 -40 -11 -69 -24 -41 -19 -54 -22 -62 -12 -6 7 -30
18 -53 25 -45 13 -73 33 -147 99 -24 22 -62 49 -85 60 -42 20 -127 34 -158 25z
m-392 -88 c9 -39 0 -30 -15 15 -6 19 -7 30 -2 25 5 -6 13 -23 17 -40z m641
-161 c84 -28 143 -89 143 -147 0 -44 -77 -120 -88 -87 -7 20 -90 67 -131 74
-28 4 -40 3 -36 -4 3 -5 2 -10 -4 -10 -17 0 -24 22 -10 31 8 5 25 8 39 7 19
-2 26 2 28 20 2 13 -4 34 -12 47 -21 32 -20 62 2 74 21 13 14 14 69 -5z m-599
-40 c42 3 72 2 72 -4 0 -18 -26 -24 -116 -22 -99 1 -158 20 -148 46 4 12 15
11 62 -6 46 -16 71 -19 130 -14z m-144 -147 c6 -8 41 -26 78 -41 105 -43 177
-115 148 -148 -6 -7 -17 -22 -24 -32 -12 -17 -13 -16 -14 13 -2 64 -56 124
-159 176 -29 14 -53 30 -53 36 0 13 11 11 24 -4z m1054 -89 c54 -27 63 -36 74
-70 16 -54 -7 -100 -63 -129 -79 -40 -370 -36 -448 6 -35 19 -23 19 30 -1 46
-17 266 -25 339 -12 19 4 38 7 43 7 4 1 7 12 7 25 0 29 -36 60 -120 103 -65
33 -69 52 -20 88 41 30 64 28 158 -17z m-334 12 c19 -1 19 -2 4 -11 -23 -13
-23 -25 2 -56 23 -30 26 -71 6 -79 -18 -7 -65 17 -92 48 -48 52 -30 116 29
104 16 -3 39 -6 51 -6z m474 -5 c29 -9 52 -20 52 -24 0 -8 -98 24 -109 35 -7
7 3 5 57 -11z m-715 -175 c15 -17 27 -34 27 -40 0 -5 -20 -29 -44 -54 l-44
-44 5 52 c4 38 2 56 -9 67 -9 8 -19 26 -23 38 -7 23 -5 24 26 18 19 -4 46 -20
62 -37z m206 8 c19 -5 77 -16 130 -24 l96 -14 -115 4 c-87 3 -126 9 -162 25
-55 23 -66 45 -15 30 17 -6 47 -15 66 -21z m566 8 c11 -3 2 -3 -19 -1 -22 2
-44 9 -50 15 -7 7 -2 8 19 1 17 -5 39 -12 50 -15z m-8 -88 c-3 -8 -6 -5 -6 6
-1 11 2 17 5 13 3 -3 4 -12 1 -19z m188 -44 c-29 -23 -112 -54 -144 -54 -13 1
150 76 169 79 3 0 -8 -11 -25 -25z m-1080 -2 c6 -4 21 -5 35 -4 25 2 25 2 2
-8 -23 -10 -248 13 -261 26 -7 8 210 -6 224 -14z m-594 -39 c13 -16 12 -17 -3
-4 -10 7 -18 15 -18 17 0 8 8 3 21 -13z m606 -110 c-2 -16 -4 -3 -4 27 0 30 2
43 4 28 2 -16 2 -40 0 -55z m-273 32 c-14 -19 -29 -35 -31 -35 -5 0 7 18 36
53 26 31 23 18 -5 -18z m461 -34 c10 -33 22 -58 26 -55 5 3 9 1 9 -5 0 -5 -4
-13 -10 -16 -13 -8 -13 -91 -1 -114 5 -9 6 -23 2 -30 -16 -25 -24 9 -25 103
-1 64 -7 101 -19 123 -9 18 -17 39 -17 48 0 31 17 5 35 -54z m-637 42 c-10 -2
-26 -2 -35 0 -10 3 -2 5 17 5 19 0 27 -2 18 -5z m509 -45 c-3 -7 -5 -2 -5 12
0 14 2 19 5 13 2 -7 2 -19 0 -25z m92 -181 c5 -67 13 -135 20 -150 6 -16 10
-56 10 -90 l-2 -62 -7 65 c-4 36 -14 79 -23 95 -10 20 -17 74 -20 165 -7 172
11 153 22 -23z m-122 81 c-3 -8 -6 -5 -6 6 -1 11 2 17 5 13 3 -3 4 -12 1 -19z
m228 -54 c-18 -58 -19 -111 -4 -204 5 -37 9 -88 7 -112 -3 -39 -4 -36 -17 37
-8 44 -16 100 -19 124 -4 43 11 140 29 189 17 43 20 17 4 -34z m-379 14 c4 -6
0 -16 -9 -23 -9 -7 -13 -15 -9 -19 4 -5 0 -7 -8 -5 -21 4 -60 -10 -60 -22 0
-6 -4 -8 -8 -5 -7 4 -304 -120 -546 -228 -33 -14 -61 -25 -63 -23 -2 2 95 48
214 101 120 53 241 108 268 121 28 12 65 28 83 35 17 7 32 17 32 22 0 5 -4 7
-9 3 -5 -3 -12 -2 -15 3 -3 4 14 8 36 8 25 -1 43 4 45 12 3 8 -2 10 -14 6 -14
-5 -15 -4 -3 4 8 6 17 9 21 6 4 -2 10 0 14 6 8 13 22 13 31 -2z m34 -62 c0 -6
-112 -66 -123 -66 -5 0 -62 -23 -128 -51 -98 -42 -119 -55 -114 -69 7 -23 -26
-37 -39 -17 -8 12 -19 10 -74 -14 -35 -16 -67 -29 -70 -29 -12 1 101 57 238
117 74 33 171 76 215 95 81 36 95 42 95 34z m67 -118 c-3 -7 -5 -2 -5 12 0 14
2 19 5 13 2 -7 2 -19 0 -25z m-47 -20 c0 -6 -3 -9 -6 -5 -3 3 -31 -3 -61 -14
-31 -10 -58 -17 -60 -15 -4 4 101 43 120 45 4 1 7 -4 7 -11z m-175 -60 c-131
-67 -142 -156 -28 -228 39 -25 42 -29 23 -35 -31 -10 -81 24 -109 74 -21 38
-22 47 -12 80 6 20 21 47 33 58 27 25 108 73 123 72 6 0 -8 -9 -30 -21z m376
-58 l-8 -65 -2 75 c-1 47 2 71 9 64 6 -6 6 -34 1 -74z m436 1 c37 -30 46 -67
27 -106 -9 -19 -28 -42 -42 -51 -25 -16 -25 -15 6 20 51 58 42 90 -43 153
l-30 23 30 -11 c17 -5 40 -18 52 -28z m-1542 -76 c-60 -30 -114 -54 -120 -54
-5 1 40 25 100 55 61 29 115 53 120 53 6 -1 -39 -25 -100 -54z m155 5 c-19
-11 -39 -19 -45 -19 -5 0 6 8 25 19 19 11 40 19 45 19 6 0 -6 -8 -25 -19z
m-90 -40 c-19 -11 -39 -19 -45 -19 -5 0 6 8 25 19 19 11 40 19 45 19 6 0 -6
-8 -25 -19z m1510 -108 c0 -14 -122 -69 -178 -81 -114 -24 -136 -6 -29 23 35
10 93 28 128 41 72 27 79 28 79 17z m-155 -22 c-11 -5 -27 -9 -35 -9 -9 0 -8
4 5 9 11 5 27 9 35 9 9 0 8 -4 -5 -9z"/>
<path d="M1388 3038 c-8 -13 -25 -45 -38 -72 -12 -26 -37 -62 -54 -80 -45 -44
-49 -61 -23 -90 12 -13 30 -35 40 -50 14 -20 26 -26 55 -26 20 0 33 4 27 8
-42 31 -42 46 12 230 22 77 23 102 4 102 -5 0 -15 -10 -23 -22z"/>
<path d="M2659 1967 c-4 -44 -2 -48 21 -53 14 -3 42 -10 63 -15 62 -16 82 11
22 31 -33 11 -48 30 -25 30 7 0 6 5 -1 13 -7 7 -25 11 -40 9 -20 -3 -28 1 -31
15 -3 10 -6 -4 -9 -30z m66 -7 c-4 -6 -11 -8 -16 -5 -5 4 -9 -2 -9 -11 0 -10
-3 -15 -6 -11 -11 11 5 37 21 37 9 0 13 -5 10 -10z m60 -50 c3 -5 2 -10 -4
-10 -5 0 -13 5 -16 10 -3 6 -2 10 4 10 5 0 13 -4 16 -10z"/>
<path d="M2633 1955 c0 -27 2 -38 4 -22 2 15 2 37 0 50 -2 12 -4 0 -4 -28z"/>
<path d="M1076 1288 c4 -12 1 -15 -13 -12 -23 6 -93 -43 -72 -51 8 -2 72 -25
143 -50 150 -53 644 -235 886 -326 91 -34 248 -93 350 -132 279 -105 234 -102
407 -23 221 102 568 263 653 303 41 20 181 85 310 145 209 97 268 128 248 128
-3 0 -53 -22 -110 -49 -56 -27 -175 -83 -263 -124 -88 -41 -189 -88 -225 -105
-121 -57 -500 -231 -680 -312 -47 -21 -87 -35 -90 -31 -3 5 -15 11 -27 15 -27
9 -30 26 -5 27 45 3 73 9 135 29 37 12 69 26 73 31 3 5 10 7 15 4 5 -4 9 -1 9
4 0 6 6 11 13 11 12 0 177 80 207 100 20 13 199 96 228 104 12 4 22 12 22 17
0 5 3 8 8 7 4 -1 21 5 38 15 17 9 34 13 38 10 3 -4 6 -1 6 5 0 7 5 12 12 12
13 0 27 7 238 109 126 61 210 110 188 111 -3 0 -57 -24 -120 -54 -167 -80
-548 -257 -663 -309 -55 -25 -161 -74 -235 -110 -163 -77 -190 -85 -190 -58 0
16 -14 24 -66 41 -36 11 -73 20 -81 20 -8 0 -11 5 -7 12 4 7 3 8 -5 4 -6 -4
-22 -1 -34 6 -12 8 -44 20 -72 27 -27 7 -54 16 -60 20 -5 5 -22 11 -37 15 -15
3 -40 11 -55 18 -15 6 -35 13 -43 14 -8 1 -39 12 -67 23 -29 12 -53 18 -53 13
0 -4 -4 -2 -8 4 -10 15 -232 86 -249 80 -8 -3 -11 -1 -8 4 7 11 -10 18 -100
45 -33 10 -76 26 -96 35 -19 9 -45 16 -57 15 -12 -1 -20 1 -17 4 8 8 -77 31
-88 24 -6 -3 -7 -1 -3 5 5 8 0 12 -13 12 -11 0 -23 5 -27 11 -3 6 -15 9 -25 6
-11 -3 -16 -1 -13 5 4 6 -2 8 -16 3 -14 -4 -20 -3 -16 3 7 12 -90 45 -106 36
-7 -5 -8 -2 -3 6 6 10 4 12 -8 7 -10 -3 -17 -3 -17 1 0 4 -11 12 -25 19 -14 6
-23 7 -19 2 11 -18 -8 -8 -27 14 -13 14 -17 16 -13 5z"/>
<path d="M3840 1270 c-8 -5 -12 -12 -9 -15 4 -3 12 1 19 10 14 17 11 19 -10 5z"/>
</g>
</svg>
